# xmcd CD database file
#
# Track frame offsets:
#	150
#	16155
#	33473
#	68035
#	82445
#	96733
#	113868
#	124903
#	143195
#	158370
#	178395
#	195655
#	214330
#
# Disc length: 2979 seconds
#
# Revision: 0
# Processed by: cddbd v1.5PL3 Copyright (c) Steve Scherf et al.
# Submitted via: CDex 1.51
#
DISCID=c20ba10d
DTITLE=Great Western Orchestra (The) - Buffalo Ground
DYEAR=1993
DGENRE=Country
TTITLE0=Joanne's Song - Prelude for Buffalo Ground
TTITLE1=Buffalo Gorund
TTITLE2=Forest Fanfare - Warrior and the King - Swan with Two Necks
TTITLE3=Out of My Hands
TTITLE4=Down Along the Livingstone
TTITLE5=Doney Gal
TTITLE6=Big Rock Candy Mountain
TTITLE7=Monsoon
TTITLE8=Dangerous Age
TTITLE9=The Heart of hte Matador ( El Corazan de un Matador)
TTITLE10=Come Away
TTITLE11=Buffalo Ground Revisited
TTITLE12=Pets and Dinner
EXTD=YEAR: 1993
EXTT0=
EXTT1=
EXTT2=
EXTT3=
EXTT4=
EXTT5=
EXTT6=
EXTT7=
EXTT8=
EXTT9=
EXTT10=
EXTT11=
EXTT12=
PLAYORDER=
